<?xml version="1.0" standalone="no"?>
<!DOCTYPE svg PUBLIC "-//W3C//DTD SVG 20010904//EN"
 "http://www.w3.org/TR/2001/REC-SVG-20010904/DTD/svg10.dtd">
<svg version="1.0" xmlns="http://www.w3.org/2000/svg"
 width="35.93" height="32" viewBox="0 0 140.000000 140.000000"
 preserveAspectRatio="xMidYMid meet">

<g transform="translate(0.000000,140.000000) scale(0.100000,-0.100000)"
fill="#000000" stroke="none">
<path d="M0 700 l0 -700 700 0 700 0 0 700 0 700 -700 0 -700 0 0 -700z m1246
497 c7 -7 -19 -38 -174 -205 -58 -62 -113 -124 -124 -137 -17 -22 -19 -44 -18
-307 1 -241 -1 -283 -13 -286 -32 -7 -39 59 -32 298 4 127 4 230 0 230 -12 0
-237 -236 -298 -312 -20 -26 -52 -54 -69 -63 -30 -14 -33 -14 -42 2 -6 10 -12
27 -13 37 -6 34 -56 117 -82 135 -15 10 -45 28 -69 40 -48 25 -51 48 -6 42 65
-7 127 -65 161 -148 10 -24 20 -43 23 -42 3 0 49 53 103 118 54 65 141 164
193 220 53 55 90 101 82 101 -7 0 -148 2 -312 4 -244 4 -302 8 -314 19 -12 13
-11 16 14 21 16 3 162 8 326 11 257 4 298 2 309 -11 11 -13 25 -3 103 75 140
139 221 189 252 158z m-1012 -309 c11 -106 29 -605 22 -633 l-7 -28 -18 29
c-10 16 -15 30 -10 32 4 2 3 17 -2 34 -11 40 -12 618 0 618 5 0 11 -24 15 -52z
m643 -596 c29 -38 18 -44 -74 -39 -49 3 -182 1 -298 -3 -171 -6 -213 -5 -225
6 -10 10 -11 17 -3 25 14 14 209 26 428 27 137 0 161 -2 172 -16z"/>
</g>
</svg>
